<svg xmlns="http://www.w3.org/2000/svg" xmlns:xlink="http://www.w3.org/1999/xlink" width="180" zoomAndPan="magnify" viewBox="0 0 135 30.000001" height="40" preserveAspectRatio="xMidYMid meet" version="1.0"><defs><g/><clipPath id="ba025085dc"><path d="M 2.230469 17 L 27.71875 17 L 27.71875 28.917969 L 2.230469 28.917969 Z M 2.230469 17 " clip-rule="nonzero"/></clipPath><clipPath id="4e1c6f984c"><path d="M 5 0.113281 L 25 0.113281 L 25 22 L 5 22 Z M 5 0.113281 " clip-rule="nonzero"/></clipPath><clipPath id="d270a3d29c"><path d="M 119 4 L 132.820312 4 L 132.820312 25 L 119 25 Z M 119 4 " clip-rule="nonzero"/></clipPath><clipPath id="e093a8aeac"><path d="M 28 1 L 132.820312 1 L 132.820312 27 L 28 27 Z M 28 1 " clip-rule="nonzero"/></clipPath></defs><g clip-path="url(#ba025085dc)"><path fill="#282252" d="M 5.546875 17.914062 C 5.546875 17.914062 22.117188 17.359375 23.632812 17.308594 C 25.152344 17.257812 25.84375 17.464844 26.28125 18.300781 C 26.964844 19.59375 27.71875 25.082031 27.71875 25.082031 C 27.71875 25.082031 21.527344 28.496094 14.695312 28.894531 C 8.632812 29.25 2.230469 25.691406 2.230469 25.691406 C 2.230469 25.691406 2.675781 20.976562 3.039062 19.476562 C 3.402344 17.972656 5.546875 17.914062 5.546875 17.914062 " fill-opacity="1" fill-rule="evenodd"/></g><g clip-path="url(#4e1c6f984c)"><path fill="#9d3be1" d="M 5.628906 18.964844 L 7.714844 2.609375 C 7.714844 2.609375 7.976562 0.488281 15.378906 0.28125 C 21.121094 0.125 21.265625 2.234375 21.265625 2.234375 L 24.21875 18.570312 C 24.21875 18.570312 20.59375 20.707031 15.097656 21.15625 C 10.082031 21.570312 5.628906 18.964844 5.628906 18.964844 " fill-opacity="1" fill-rule="evenodd"/></g><path fill="#7900ff" d="M 19.695312 16.703125 C 19.699219 16.703125 19.707031 16.703125 19.714844 16.703125 C 19.699219 16.691406 19.6875 16.679688 19.683594 16.699219 L 19.691406 16.703125 Z M 23.914062 18.21875 C 23.679688 17.96875 23.09375 17.664062 22.433594 17.40625 C 22.128906 17.285156 21.808594 17.175781 21.5 17.082031 C 20.800781 16.871094 20.183594 16.742188 20.050781 16.730469 C 20.03125 16.726562 19.820312 16.71875 19.714844 16.703125 C 19.726562 16.714844 19.738281 16.730469 19.742188 16.738281 C 19.726562 16.722656 19.710938 16.710938 19.691406 16.703125 C 19.6875 16.703125 19.683594 16.703125 19.683594 16.703125 L 19.683594 16.699219 C 19.667969 16.695312 19.65625 16.691406 19.644531 16.691406 C 19.554688 16.679688 19.472656 16.746094 19.464844 16.835938 C 19.457031 16.878906 19.46875 16.945312 19.546875 16.996094 C 19.558594 17.003906 19.589844 17.015625 19.632812 17.023438 C 19.730469 17.046875 19.980469 17.082031 20.003906 17.085938 C 20.128906 17.101562 20.679688 17.273438 21.332031 17.488281 C 21.546875 17.558594 21.777344 17.632812 22 17.707031 C 22.226562 17.78125 22.453125 17.859375 22.660156 17.933594 C 23.117188 18.105469 23.507812 18.277344 23.6875 18.445312 C 23.75 18.507812 23.847656 18.507812 23.914062 18.445312 C 23.976562 18.382812 23.976562 18.28125 23.914062 18.21875 Z M 12.070312 17.117188 C 12.0625 17.027344 11.980469 16.964844 11.894531 16.976562 C 10.976562 17.070312 10.035156 17.160156 9.117188 17.335938 C 8.808594 17.390625 8.5 17.460938 8.199219 17.539062 C 7.894531 17.621094 7.59375 17.714844 7.300781 17.820312 C 7.058594 17.90625 6.5625 18.046875 6.207031 18.25 C 6.007812 18.359375 5.847656 18.496094 5.773438 18.636719 C 5.730469 18.71875 5.757812 18.816406 5.835938 18.859375 C 5.914062 18.902344 6.015625 18.871094 6.058594 18.792969 C 6.132812 18.671875 6.3125 18.582031 6.507812 18.5 C 6.839844 18.359375 7.230469 18.269531 7.429688 18.207031 C 7.71875 18.117188 8.011719 18.035156 8.308594 17.964844 C 8.601562 17.890625 8.902344 17.824219 9.203125 17.761719 C 10.109375 17.570312 11.03125 17.425781 11.933594 17.292969 C 12.019531 17.285156 12.082031 17.207031 12.070312 17.117188 Z M 20.757812 12.632812 C 20.757812 15.355469 19.113281 17.566406 17.089844 17.566406 C 16.621094 17.566406 16.167969 17.445312 15.753906 17.226562 C 15.300781 18.082031 16.71875 18.753906 16.53125 19.089844 C 16.3125 19.476562 15.039062 19.707031 13.96875 19.65625 C 12.765625 19.597656 10.414062 19.359375 11.394531 18.570312 C 11.699219 18.320312 12.386719 16.960938 12.4375 16.183594 C 12.289062 16.214844 12.140625 16.226562 11.988281 16.226562 C 10.308594 16.226562 8.945312 14.425781 8.945312 12.210938 C 8.945312 9.992188 10.308594 8.191406 11.988281 8.191406 C 12.886719 8.191406 13.691406 8.703125 14.25 9.519531 C 14.921875 8.40625 15.945312 7.695312 17.089844 7.695312 C 19.113281 7.695312 20.757812 9.910156 20.757812 12.632812 " fill-opacity="1" fill-rule="nonzero"/><path fill="#ff96d5" d="M 24.824219 19.019531 C 24.730469 19.074219 24.488281 19.222656 24.476562 19.230469 L 23.757812 19.667969 C 23.621094 19.75 23.484375 19.824219 23.351562 19.898438 C 23.144531 20.015625 22.9375 20.128906 22.730469 20.238281 C 22.378906 20.414062 22.027344 20.585938 21.65625 20.734375 C 21.578125 20.765625 21.53125 20.859375 21.5625 20.941406 C 21.59375 21.023438 21.6875 21.070312 21.769531 21.039062 C 22.15625 20.910156 22.539062 20.773438 22.90625 20.609375 C 23.128906 20.511719 23.351562 20.402344 23.566406 20.285156 C 23.707031 20.207031 23.84375 20.121094 23.984375 20.03125 C 24.101562 19.953125 24.222656 19.871094 24.339844 19.789062 C 24.457031 19.703125 24.570312 19.617188 24.683594 19.53125 C 24.699219 19.523438 24.917969 19.355469 25.003906 19.296875 C 25.011719 19.289062 25.015625 19.285156 25.019531 19.28125 C 25.097656 19.246094 25.132812 19.152344 25.101562 19.074219 C 25.101562 19.066406 24.976562 18.929688 24.824219 19.019531 Z M 18.324219 21.890625 L 15.867188 22.328125 L 14.992188 22.4375 C 14.953125 22.441406 14.894531 22.429688 14.835938 22.421875 C 14.761719 22.40625 14.691406 22.398438 14.640625 22.410156 C 14.5625 22.425781 14.507812 22.460938 14.480469 22.515625 C 14.464844 22.550781 14.445312 22.589844 14.453125 22.644531 C 14.457031 22.730469 14.535156 22.800781 14.625 22.792969 C 14.664062 22.792969 14.703125 22.777344 14.726562 22.75 C 14.75 22.753906 14.777344 22.761719 14.800781 22.765625 C 14.878906 22.789062 14.960938 22.804688 15.019531 22.800781 C 15.203125 22.792969 15.378906 22.789062 15.558594 22.78125 C 15.679688 22.773438 15.800781 22.761719 15.925781 22.75 C 16.09375 22.730469 16.261719 22.710938 16.429688 22.679688 C 16.597656 22.652344 16.761719 22.617188 16.925781 22.578125 C 17.414062 22.464844 17.898438 22.328125 18.390625 22.207031 C 18.472656 22.191406 18.53125 22.105469 18.511719 22.015625 C 18.496094 21.929688 18.410156 21.875 18.324219 21.890625 Z M 13.265625 22.335938 C 12.109375 22.304688 11.035156 22.167969 9.988281 21.914062 C 9.457031 21.785156 8.933594 21.625 8.410156 21.441406 C 7.902344 21.261719 7.394531 21.058594 6.878906 20.820312 C 6.679688 20.726562 6.480469 20.640625 6.277344 20.554688 C 5.8125 20.355469 5.339844 20.167969 4.875 19.972656 C 4.734375 19.910156 4.59375 19.855469 4.457031 19.792969 C 4.367188 19.753906 4.277344 19.714844 4.191406 19.667969 C 4.175781 19.660156 4.132812 19.652344 4.097656 19.636719 C 4.074219 19.628906 4.054688 19.613281 4.0625 19.601562 C 4.066406 19.597656 4.070312 19.597656 4.070312 19.59375 C 4.023438 19.542969 3.949219 19.527344 3.886719 19.558594 C 3.816406 19.585938 3.792969 19.636719 3.789062 19.691406 C 3.78125 19.722656 3.789062 19.78125 3.839844 19.835938 C 3.871094 19.871094 3.992188 19.933594 4.03125 19.960938 C 4.125 20.011719 4.21875 20.058594 4.3125 20.105469 C 4.449219 20.171875 4.589844 20.234375 4.726562 20.300781 C 5.1875 20.511719 5.652344 20.714844 6.113281 20.925781 C 6.308594 21.015625 6.503906 21.105469 6.699219 21.199219 C 7.222656 21.453125 7.742188 21.671875 8.261719 21.855469 C 8.804688 22.046875 9.34375 22.199219 9.894531 22.320312 C 10.972656 22.554688 12.082031 22.660156 13.261719 22.660156 C 13.347656 22.660156 13.421875 22.589844 13.421875 22.5 C 13.421875 22.410156 13.351562 22.339844 13.265625 22.335938 Z M 4.070312 19.59375 C 4.082031 19.605469 4.09375 19.621094 4.097656 19.636719 C 4.09375 19.609375 4.082031 19.582031 4.070312 19.59375 Z M 12.335938 15.503906 C 12.296875 15.496094 12.265625 15.472656 12.242188 15.441406 C 12.265625 15.488281 12.308594 15.5 12.335938 15.503906 Z M 12.242188 15.441406 C 12.238281 15.4375 12.242188 15.4375 12.238281 15.433594 C 12.238281 15.433594 12.238281 15.433594 12.234375 15.433594 Z M 12.75 15.378906 C 12.691406 15.382812 12.636719 15.386719 12.578125 15.394531 C 12.597656 15.429688 12.609375 15.464844 12.613281 15.476562 C 12.628906 15.527344 12.640625 15.582031 12.648438 15.640625 C 12.65625 15.695312 12.664062 15.746094 12.671875 15.800781 C 12.675781 15.863281 12.679688 15.925781 12.679688 15.984375 C 12.675781 16.046875 12.671875 16.105469 12.667969 16.167969 C 12.644531 16.347656 12.609375 16.519531 12.574219 16.699219 C 12.566406 16.785156 12.488281 16.851562 12.398438 16.84375 C 12.3125 16.835938 12.246094 16.757812 12.253906 16.671875 C 12.253906 16.46875 12.238281 16.265625 12.234375 16.0625 C 12.234375 15.980469 12.246094 15.894531 12.242188 15.8125 L 12.25 15.535156 C 12.25 15.539062 12.25 15.542969 12.253906 15.542969 C 12.277344 15.539062 12.246094 15.46875 12.230469 15.433594 C 12.195312 15.441406 12.148438 15.441406 12.113281 15.449219 C 12.09375 15.453125 12.027344 15.46875 11.964844 15.484375 C 11.949219 15.488281 11.925781 15.492188 11.914062 15.496094 C 11.859375 15.550781 11.769531 15.5625 11.703125 15.515625 C 11.652344 15.488281 11.644531 15.441406 11.632812 15.40625 C 11.621094 15.363281 11.636719 15.289062 11.714844 15.222656 C 11.769531 15.179688 11.949219 15.097656 11.988281 15.082031 C 12.0625 15.050781 12.148438 15.019531 12.242188 14.996094 C 12.324219 14.976562 12.410156 14.964844 12.5 14.960938 C 12.574219 14.957031 12.652344 14.957031 12.730469 14.964844 C 12.902344 14.976562 13.074219 15.003906 13.25 15.042969 C 13.335938 15.054688 13.398438 15.132812 13.386719 15.222656 C 13.375 15.3125 13.296875 15.375 13.207031 15.363281 C 13.054688 15.355469 12.902344 15.367188 12.75 15.378906 Z M 12.570312 9.71875 C 12.570312 9.71875 12.566406 9.714844 12.566406 9.714844 L 12.566406 9.71875 C 12.570312 9.71875 12.570312 9.71875 12.570312 9.71875 Z M 12.578125 9.71875 C 12.574219 9.714844 12.574219 9.714844 12.570312 9.71875 C 12.570312 9.71875 12.570312 9.71875 12.574219 9.71875 Z M 19.261719 12.566406 C 19.269531 11.945312 19.121094 11.371094 18.867188 10.925781 C 18.5625 10.394531 18.109375 10.039062 17.589844 10.035156 L 17.589844 10.03125 C 17.070312 10.039062 16.613281 10.390625 16.3125 10.921875 C 16.054688 11.367188 15.90625 11.941406 15.914062 12.566406 C 15.917969 13.1875 16.078125 13.753906 16.339844 14.195312 C 16.640625 14.707031 17.085938 15.042969 17.589844 15.042969 C 18.09375 15.042969 18.535156 14.707031 18.839844 14.191406 C 19.101562 13.753906 19.257812 13.1875 19.261719 12.566406 Z M 18.960938 10.421875 C 19.386719 10.941406 19.660156 11.707031 19.667969 12.566406 C 19.675781 13.429688 19.410156 14.207031 18.992188 14.734375 C 18.621094 15.207031 18.125 15.480469 17.589844 15.484375 C 17.054688 15.480469 16.5625 15.203125 16.191406 14.734375 C 15.773438 14.203125 15.511719 13.429688 15.515625 12.566406 C 15.527344 11.710938 15.796875 10.941406 16.222656 10.425781 C 16.589844 9.972656 17.070312 9.703125 17.589844 9.710938 L 17.589844 9.707031 C 18.113281 9.699219 18.59375 9.96875 18.960938 10.421875 Z M 15.558594 17.226562 C 15.636719 17.265625 15.734375 17.234375 15.773438 17.15625 C 15.816406 17.078125 15.785156 16.980469 15.703125 16.941406 C 14.6875 16.40625 14.207031 15.464844 14.003906 14.449219 C 13.945312 14.136719 13.910156 13.816406 13.890625 13.5 C 13.875 13.175781 13.875 12.851562 13.890625 12.535156 C 13.957031 10.984375 14.355469 9.664062 14.355469 9.664062 C 14.382812 9.578125 14.339844 9.488281 14.253906 9.460938 C 14.167969 9.433594 14.078125 9.476562 14.046875 9.5625 C 14.046875 9.5625 14 9.691406 13.9375 9.914062 C 13.824219 9.914062 13.710938 9.90625 13.597656 9.890625 C 13.484375 9.875 13.375 9.851562 13.261719 9.828125 C 13.148438 9.808594 13.03125 9.792969 12.921875 9.765625 C 12.882812 9.757812 12.667969 9.738281 12.578125 9.71875 C 12.582031 9.722656 12.585938 9.730469 12.589844 9.734375 C 12.582031 9.726562 12.574219 9.722656 12.566406 9.71875 L 12.566406 9.714844 C 12.519531 9.6875 12.464844 9.683594 12.414062 9.707031 C 12.332031 9.746094 12.296875 9.84375 12.332031 9.921875 C 12.34375 9.949219 12.382812 9.992188 12.460938 10.03125 C 12.546875 10.074219 12.769531 10.136719 12.808594 10.152344 C 12.90625 10.1875 13.007812 10.226562 13.117188 10.246094 C 13.222656 10.273438 13.328125 10.285156 13.441406 10.292969 C 13.574219 10.300781 13.703125 10.292969 13.835938 10.273438 C 13.695312 10.820312 13.519531 11.625 13.460938 12.511719 C 13.4375 12.84375 13.433594 13.183594 13.453125 13.523438 C 13.472656 13.863281 13.515625 14.203125 13.585938 14.535156 C 13.835938 15.65625 14.414062 16.671875 15.558594 17.226562 Z M 21.859375 9.503906 C 21.867188 9.523438 21.871094 9.542969 21.871094 9.566406 C 21.882812 9.53125 21.890625 9.488281 21.859375 9.503906 Z M 21.757812 10.335938 C 21.804688 10.492188 21.839844 10.648438 21.882812 10.808594 C 21.933594 10.992188 21.984375 11.171875 22.039062 11.359375 C 22.089844 11.542969 22.144531 11.726562 22.199219 11.914062 C 22.21875 12 22.300781 12.054688 22.386719 12.035156 C 22.476562 12.015625 22.527344 11.933594 22.511719 11.84375 C 22.457031 11.515625 22.410156 11.1875 22.34375 10.859375 C 22.324219 10.773438 22.304688 10.6875 22.28125 10.597656 C 22.25 10.46875 22.203125 10.339844 22.164062 10.214844 L 21.976562 9.71875 C 21.96875 9.695312 21.90625 9.628906 21.871094 9.574219 L 21.871094 9.566406 L 21.871094 9.570312 C 21.847656 9.539062 21.839844 9.511719 21.855469 9.503906 L 21.859375 9.503906 C 21.851562 9.492188 21.847656 9.476562 21.839844 9.46875 C 21.816406 9.433594 21.796875 9.425781 21.789062 9.421875 C 21.75 9.390625 21.710938 9.394531 21.683594 9.394531 C 21.621094 9.398438 21.574219 9.4375 21.546875 9.507812 C 21.542969 9.519531 21.53125 9.570312 21.558594 9.640625 C 21.574219 9.683594 21.625 9.804688 21.636719 9.835938 Z M 20.605469 3.636719 C 20.582031 3.644531 20.585938 3.667969 20.597656 3.699219 C 20.601562 3.6875 20.601562 3.679688 20.601562 3.671875 C 20.601562 3.664062 20.617188 3.632812 20.605469 3.636719 Z M 21.125 5.429688 C 21.203125 5.839844 21.261719 6.257812 21.316406 6.671875 C 21.332031 6.761719 21.273438 6.84375 21.1875 6.859375 C 21.097656 6.871094 21.015625 6.816406 21 6.726562 C 20.898438 6.253906 20.769531 5.789062 20.660156 5.320312 C 20.613281 5.117188 20.574219 4.914062 20.527344 4.710938 L 20.390625 4.019531 C 20.378906 3.960938 20.324219 3.851562 20.300781 3.78125 C 20.277344 3.710938 20.269531 3.652344 20.277344 3.621094 C 20.292969 3.554688 20.328125 3.511719 20.375 3.492188 C 20.410156 3.480469 20.464844 3.457031 20.542969 3.5 C 20.625 3.539062 20.65625 3.636719 20.617188 3.71875 C 20.617188 3.71875 20.617188 3.722656 20.613281 3.726562 C 20.652344 3.792969 20.730469 3.878906 20.746094 3.925781 L 20.941406 4.613281 C 20.976562 4.75 21.011719 4.886719 21.042969 5.019531 C 21.074219 5.15625 21.101562 5.292969 21.125 5.429688 Z M 8.15625 2.742188 C 8.074219 2.703125 8.039062 2.605469 8.074219 2.523438 C 8.113281 2.445312 8.210938 2.410156 8.292969 2.445312 C 8.292969 2.445312 9.628906 3.035156 11.664062 3.308594 C 12.300781 3.394531 13.003906 3.449219 13.753906 3.449219 C 14.203125 3.449219 14.667969 3.429688 15.148438 3.386719 C 16.300781 3.28125 17.28125 3.078125 18.085938 2.851562 C 19.894531 2.347656 20.816406 1.710938 20.816406 1.710938 C 20.890625 1.65625 20.992188 1.675781 21.042969 1.746094 C 21.09375 1.820312 21.074219 1.917969 21.003906 1.972656 C 21.003906 1.972656 20.0625 2.667969 18.195312 3.226562 C 17.375 3.476562 16.371094 3.695312 15.191406 3.820312 C 14.695312 3.867188 14.214844 3.890625 13.753906 3.890625 C 12.980469 3.882812 12.257812 3.816406 11.605469 3.714844 C 9.515625 3.390625 8.15625 2.742188 8.15625 2.742188 " fill-opacity="1" fill-rule="evenodd"/><g fill="#9d3be1" fill-opacity="1"><g transform="translate(31.442773, 24.416624)"><g><path d="M 11.90625 -11.621094 C 13.382812 -18.515625 13.40625 -18.683594 13.40625 -18.847656 C 13.40625 -19.941406 12.429688 -19.964844 12.050781 -19.964844 L 5.417969 -19.964844 C 5.15625 -19.964844 4.894531 -19.75 4.847656 -19.492188 C 0.808594 -0.429688 0.785156 -0.378906 0.785156 -0.355469 C 0.785156 -0.144531 0.972656 0 1.1875 0 L 4.015625 0 C 4.277344 0 4.515625 -0.214844 4.585938 -0.476562 L 6.273438 -8.460938 L 7.414062 -8.460938 C 5.726562 -0.429688 5.703125 -0.378906 5.703125 -0.355469 C 5.703125 -0.144531 5.894531 0 6.109375 0 L 8.9375 0 C 9.199219 0 9.4375 -0.214844 9.507812 -0.476562 C 11.195312 -8.390625 11.21875 -8.558594 11.21875 -8.722656 C 11.21875 -9.839844 10.246094 -9.839844 9.863281 -9.839844 L 9.910156 -9.960938 C 10.339844 -9.960938 11.574219 -9.960938 11.90625 -11.621094 Z M 8.082031 -16.898438 L 9.222656 -16.898438 L 8.058594 -11.503906 L 6.917969 -11.503906 Z M 8.082031 -16.898438 "/></g></g></g><g fill="#9d3be1" fill-opacity="1"><g transform="translate(42.802371, 24.416624)"><g><path d="M 4.585938 -18.300781 C 1 -1.472656 1 -1.285156 1 -1.140625 C 1 -0.0234375 1.972656 0 2.351562 0 L 7.796875 0 C 8.222656 0 9.4375 -0.0234375 9.792969 -1.664062 C 13.359375 -18.515625 13.382812 -18.683594 13.382812 -18.847656 C 13.382812 -19.941406 12.40625 -19.964844 12.027344 -19.964844 L 6.558594 -19.964844 C 6.109375 -19.964844 4.945312 -19.917969 4.585938 -18.300781 Z M 6.273438 -3.066406 L 5.132812 -3.066406 L 8.082031 -16.898438 L 9.222656 -16.898438 Z M 6.273438 -3.066406 "/></g></g></g><g fill="#9d3be1" fill-opacity="1"><g transform="translate(54.138207, 24.416624)"><g><path d="M 12.003906 -11.765625 C 13.429688 -18.515625 13.453125 -18.683594 13.453125 -18.847656 C 13.453125 -19.964844 12.453125 -19.964844 12.074219 -19.964844 L 5.417969 -19.964844 C 5.15625 -19.964844 4.894531 -19.75 4.847656 -19.492188 C 0.808594 -0.429688 0.785156 -0.378906 0.785156 -0.355469 C 0.785156 -0.144531 0.972656 0 1.1875 0 L 7.84375 0 C 8.273438 0 9.507812 0 9.863281 -1.664062 C 11.3125 -8.53125 11.335938 -8.722656 11.335938 -8.890625 C 11.335938 -9.984375 10.386719 -9.984375 10.007812 -9.984375 L 10.03125 -10.101562 C 10.457031 -10.101562 11.648438 -10.101562 12.003906 -11.765625 Z M 6.273438 -8.460938 L 7.414062 -8.460938 L 6.273438 -3.066406 L 5.132812 -3.066406 Z M 8.082031 -16.898438 L 9.222656 -16.898438 L 8.058594 -11.503906 L 6.917969 -11.503906 Z M 8.082031 -16.898438 "/></g></g></g><g fill="#9d3be1" fill-opacity="1"><g transform="translate(65.545335, 24.416624)"><g><path d="M 9.507812 -8.320312 C 9.769531 -8.320312 10.03125 -8.53125 10.078125 -8.792969 L 10.53125 -11.003906 C 10.53125 -11.21875 10.386719 -11.386719 10.148438 -11.386719 L 3.589844 -11.386719 C 3.328125 -11.386719 3.066406 -11.171875 3.019531 -10.910156 L 2.566406 -8.699219 C 2.566406 -8.484375 2.710938 -8.320312 2.949219 -8.320312 Z M 9.507812 -8.320312 "/></g></g></g><g fill="#9d3be1" fill-opacity="1"><g transform="translate(75.669197, 24.416624)"><g><path d="M 4.585938 -18.300781 C 1 -1.472656 1 -1.285156 1 -1.140625 C 1 -0.0234375 1.972656 0 2.351562 0 L 7.796875 0 C 8.222656 0 9.4375 -0.0234375 9.792969 -1.664062 C 13.359375 -18.515625 13.382812 -18.683594 13.382812 -18.847656 C 13.382812 -19.941406 12.40625 -19.964844 12.027344 -19.964844 L 6.558594 -19.964844 C 6.109375 -19.964844 4.945312 -19.917969 4.585938 -18.300781 Z M 6.273438 -3.066406 L 5.132812 -3.066406 L 8.082031 -16.898438 L 9.222656 -16.898438 Z M 6.273438 -3.066406 "/></g></g></g><g fill="#9d3be1" fill-opacity="1"><g transform="translate(87.005032, 24.416624)"><g><path d="M 9.507812 -8.320312 C 9.769531 -8.320312 10.03125 -8.53125 10.078125 -8.792969 L 10.53125 -11.003906 C 10.53125 -11.21875 10.386719 -11.386719 10.148438 -11.386719 L 3.589844 -11.386719 C 3.328125 -11.386719 3.066406 -11.171875 3.019531 -10.910156 L 2.566406 -8.699219 C 2.566406 -8.484375 2.710938 -8.320312 2.949219 -8.320312 Z M 9.507812 -8.320312 "/></g></g></g><g fill="#9d3be1" fill-opacity="1"><g transform="translate(97.128895, 24.416624)"><g><path d="M 4.585938 -18.300781 C 1 -1.472656 1 -1.285156 1 -1.140625 C 1 0 1.996094 0 2.375 0 L 8.722656 0 C 8.984375 0 9.222656 -0.214844 9.292969 -0.476562 L 9.722656 -2.589844 L 9.722656 -2.6875 C 9.722656 -2.898438 9.578125 -3.066406 9.339844 -3.066406 L 5.132812 -3.066406 L 8.082031 -16.898438 L 12.050781 -16.898438 C 12.3125 -16.898438 12.574219 -17.113281 12.621094 -17.375 L 13.097656 -19.585938 C 13.097656 -19.800781 12.953125 -19.964844 12.714844 -19.964844 L 6.609375 -19.964844 C 6.179688 -19.964844 4.945312 -19.964844 4.585938 -18.300781 Z M 4.585938 -18.300781 "/></g></g></g><g fill="#9d3be1" fill-opacity="1"><g transform="translate(107.846861, 24.416624)"><g><path d="M 4.585938 -18.300781 C 1 -1.472656 1 -1.285156 1 -1.140625 C 1 -0.0234375 1.972656 0 2.351562 0 L 7.796875 0 C 8.222656 0 9.4375 -0.0234375 9.792969 -1.664062 C 13.359375 -18.515625 13.382812 -18.683594 13.382812 -18.847656 C 13.382812 -19.941406 12.40625 -19.964844 12.027344 -19.964844 L 6.558594 -19.964844 C 6.109375 -19.964844 4.945312 -19.917969 4.585938 -18.300781 Z M 6.273438 -3.066406 L 5.132812 -3.066406 L 8.082031 -16.898438 L 9.222656 -16.898438 Z M 6.273438 -3.066406 "/></g></g></g><g clip-path="url(#d270a3d29c)"><g fill="#9d3be1" fill-opacity="1"><g transform="translate(119.182696, 24.416624)"><g><path d="M 10.433594 -6.65625 C 12.953125 -18.515625 12.976562 -18.683594 12.976562 -18.847656 C 12.976562 -19.941406 12.003906 -19.964844 11.621094 -19.964844 L 5.417969 -19.964844 C 5.15625 -19.964844 4.894531 -19.75 4.847656 -19.492188 C 0.808594 -0.429688 0.785156 -0.378906 0.785156 -0.355469 C 0.785156 -0.144531 0.972656 0 1.1875 0 L 4.015625 0 C 4.277344 0 4.515625 -0.214844 4.585938 -0.476562 L 5.539062 -4.992188 L 8.414062 -4.992188 C 8.84375 -4.992188 10.078125 -4.992188 10.433594 -6.65625 Z M 8.082031 -16.898438 L 9.222656 -16.898438 L 7.34375 -8.058594 L 6.203125 -8.058594 Z M 8.082031 -16.898438 "/></g></g></g></g><g clip-path="url(#e093a8aeac)"><path stroke-linecap="butt" transform="matrix(0.336335, 0, 0, 0.336335, 28.379338, 2.492159)" fill="none" stroke-linejoin="miter" d="M 42.320741 28.443182 C 46.710897 7.944177 46.780582 7.456382 46.780582 6.956972 C 46.780582 3.705006 43.87704 3.635321 42.76208 3.635321 L 23.041224 3.635321 C 22.263074 3.635321 21.484925 4.2741 21.345555 5.040635 C 9.324892 61.717772 9.255207 61.857142 9.255207 61.950055 C 9.255207 62.565606 9.824301 62.99533 10.46308 62.99533 L 18.860123 62.99533 C 19.638273 62.99533 20.346737 62.356551 20.567406 61.590016 L 25.573112 37.839044 L 28.976063 37.839044 C 23.947129 61.717772 23.877444 61.857142 23.877444 61.950055 C 23.877444 62.565606 24.446538 62.99533 25.085317 62.99533 L 33.493974 62.99533 C 34.272123 62.99533 34.980588 62.356551 35.178029 61.590016 C 40.206963 38.048099 40.276648 37.548689 40.276648 37.072508 C 40.276648 33.739242 37.373106 33.739242 36.258146 33.739242 L 36.385902 33.390817 C 37.66346 33.390817 41.345151 33.390817 42.320741 28.443182 Z M 30.950472 12.752442 L 34.341808 12.752442 L 30.892401 28.803221 L 27.48945 28.803221 Z M 54.341405 8.582956 C 43.667985 58.616789 43.667985 59.185883 43.667985 59.603993 C 43.667985 62.925645 46.559913 62.99533 47.698101 62.99533 L 63.865022 62.99533 C 65.14258 62.99533 68.754587 62.925645 69.82309 58.047695 C 80.415211 7.944177 80.484896 7.456382 80.484896 6.956972 C 80.484896 3.705006 77.581354 3.635321 76.466394 3.635321 L 60.194945 3.635321 C 58.859316 3.635321 55.398294 3.786305 54.341405 8.582956 Z M 59.347111 53.889823 L 55.967388 53.889823 L 64.736085 12.752442 L 68.115807 12.752442 Z M 110.077794 28.013458 C 114.328579 7.944177 114.398264 7.456382 114.398264 6.956972 C 114.398264 3.635321 111.425038 3.635321 110.310078 3.635321 L 90.519536 3.635321 C 89.741387 3.635321 88.963238 4.2741 88.823868 5.040635 C 76.803205 61.717772 76.73352 61.857142 76.73352 61.950055 C 76.73352 62.565606 77.302614 62.99533 77.941393 62.99533 L 97.731934 62.99533 C 98.986264 62.99533 102.656341 62.99533 103.736459 58.047695 C 108.045315 37.641603 108.115 37.072508 108.115 36.573099 C 108.115 33.321132 105.281143 33.321132 104.142955 33.321132 L 104.235868 32.961093 C 105.490198 32.961093 109.032519 32.961093 110.077794 28.013458 Z M 93.051425 37.839044 L 96.454376 37.839044 L 93.051425 53.889823 L 89.671702 53.889823 Z M 98.428784 12.752442 L 101.820121 12.752442 L 98.370713 28.803221 L 94.967762 28.803221 Z M 136.581324 38.257154 C 137.359473 38.257154 138.149237 37.641603 138.288607 36.840225 L 139.63585 30.289835 C 139.63585 29.651056 139.194512 29.151646 138.497662 29.151646 L 118.974246 29.151646 C 118.207711 29.151646 117.429562 29.790426 117.290192 30.568575 L 115.942949 37.142194 C 115.942949 37.780973 116.372673 38.257154 117.081137 38.257154 Z M 152.063009 8.582956 C 141.38959 58.616789 141.38959 59.185883 141.38959 59.603993 C 141.38959 62.925645 144.281517 62.99533 145.419706 62.99533 L 161.586627 62.99533 C 162.864185 62.99533 166.476191 62.925645 167.544695 58.047695 C 178.136815 7.944177 178.2065 7.456382 178.2065 6.956972 C 178.2065 3.705006 175.302958 3.635321 174.187998 3.635321 L 157.91655 3.635321 C 156.580921 3.635321 153.119899 3.786305 152.063009 8.582956 Z M 157.068716 53.889823 L 153.688993 53.889823 L 162.446075 12.752442 L 165.837412 12.752442 Z M 200.377946 38.257154 C 201.156095 38.257154 201.957473 37.641603 202.085228 36.840225 L 203.432472 30.289835 C 203.432472 29.651056 203.002748 29.151646 202.294283 29.151646 L 182.782482 29.151646 C 182.004333 29.151646 181.226184 29.790426 181.098428 30.568575 L 179.751185 37.142194 C 179.751185 37.780973 180.180909 38.257154 180.889373 38.257154 Z M 215.871245 8.582956 C 205.186211 58.616789 205.186211 59.185883 205.186211 59.603993 C 205.186211 62.99533 208.159438 62.99533 209.297626 62.99533 L 228.159034 62.99533 C 228.925569 62.99533 229.634034 62.356551 229.866317 61.590016 L 231.120647 55.306751 L 231.120647 55.016397 C 231.120647 54.377618 230.702537 53.889823 229.994073 53.889823 L 217.485614 53.889823 L 226.254311 12.752442 L 238.054305 12.752442 C 238.832454 12.752442 239.610603 12.125277 239.749973 11.347128 L 241.166902 4.773509 C 241.166902 4.13473 240.725563 3.635321 240.028713 3.635321 L 221.87577 3.635321 C 220.598211 3.635321 216.91652 3.635321 215.871245 8.582956 Z M 247.740521 8.582956 C 237.055487 58.616789 237.055487 59.185883 237.055487 59.603993 C 237.055487 62.925645 239.959028 62.99533 241.097217 62.99533 L 257.264138 62.99533 C 258.541696 62.99533 262.142088 62.925645 263.210592 58.047695 C 273.802712 7.944177 273.872397 7.456382 273.872397 6.956972 C 273.872397 3.705006 270.98047 3.635321 269.853895 3.635321 L 253.582447 3.635321 C 252.258432 3.635321 248.785796 3.786305 247.740521 8.582956 Z M 252.734613 53.889823 L 249.35489 53.889823 L 258.123586 12.752442 L 261.503309 12.752442 Z M 298.819629 43.204789 C 306.299153 7.944177 306.368838 7.456382 306.368838 6.956972 C 306.368838 3.705006 303.47691 3.635321 302.350336 3.635321 L 283.907038 3.635321 C 283.128889 3.635321 282.350739 4.2741 282.211369 5.040635 C 270.190706 61.717772 270.121021 61.857142 270.121021 61.950055 C 270.121021 62.565606 270.690115 62.99533 271.328895 62.99533 L 279.737552 62.99533 C 280.504087 62.99533 281.212551 62.356551 281.444834 61.590016 L 284.255463 48.164038 L 292.815104 48.164038 C 294.081049 48.164038 297.76274 48.164038 298.819629 43.204789 Z M 291.8279 12.752442 L 295.207623 12.752442 L 289.632822 39.035303 L 286.241486 39.035303 Z M 291.8279 12.752442 " stroke="#79ffa0" stroke-width="1.325164" stroke-opacity="1" stroke-miterlimit="4"/></g></svg>